<svg width="20" height="20" viewBox="0 0 20 20" fill="none" xmlns="http://www.w3.org/2000/svg">
<g clip-path="url(#clip0_10570_129251)">
<path d="M11.7697 13.0325C11.6176 12.8937 11.479 12.7433 11.3323 12.5844C11.2641 12.5104 11.1935 12.4338 11.117 12.3532C10.9303 12.1567 10.9682 12.0386 10.9751 12.0216L11.3369 11.644C11.346 11.6484 11.3547 11.6509 11.3642 11.6495C11.3784 11.6492 11.3897 11.6467 11.3984 11.6451C11.4116 11.6423 11.4281 11.6387 11.5169 11.7238C11.6098 11.8128 11.8152 12.0305 11.9291 12.1523C11.9752 12.2014 12.0103 12.2391 12.0247 12.2547C12.0324 12.3074 12.0243 12.3758 11.9618 12.4411C11.8351 12.5733 11.7862 12.6665 11.4575 12.5417C11.4549 12.5302 11.4109 12.5668 11.4947 12.6305C11.5785 12.6941 11.7335 12.6977 11.8072 12.6823C11.8808 12.6669 12.1055 12.5742 12.1281 12.5552L12.2267 12.6083C12.2267 12.6083 12.3321 12.6513 12.4041 12.6259L12.4152 12.6379L12.2294 12.8319C12.2294 12.8319 12.0875 12.919 12.0094 13.0615C11.992 13.0932 11.989 13.1133 11.9921 13.1322C11.9345 13.1348 11.861 13.1157 11.7697 13.0325ZM4.52679 4.03919L4.54881 4.06029C4.57138 4.08192 4.60723 4.08116 4.62881 4.05863C4.64587 4.04083 4.64852 4.01507 4.63808 3.99421L4.64068 3.9915L5.77262 5.07604L6.01491 5.30819L5.93615 5.3904L4.52636 4.03964L4.52679 4.03919ZM2.42114 2.02255C2.49082 2.01335 2.56514 2.00285 2.56514 2.00285L2.65129 2.08539L3.85344 3.23722C3.85462 3.24132 3.85542 3.2457 3.85724 3.24936L3.85452 3.25219L3.95315 3.34669C3.93499 3.34333 3.91569 3.34781 3.90192 3.36218C3.88034 3.3847 3.88111 3.42055 3.90374 3.44223L4.24039 3.76479C4.24039 3.76479 4.24018 3.76523 4.24008 3.76534L2.42114 2.02255ZM2.69179 1.10569C2.75286 1.04195 2.8542 1.03979 2.91788 1.1008L3.13937 1.31302L3.03466 1.65572L2.69657 1.33178C2.63289 1.27077 2.63083 1.16931 2.69179 1.10569ZM5.03166 3.56889L5.07019 3.52868L5.772 4.20111L6.22514 4.63528L6.22617 4.67063L6.0542 4.77238L4.92715 3.69251L4.98126 3.63604L4.97399 3.62908L5.03166 3.56889ZM6.62987 5.06456L6.62977 5.06467L6.83506 5.26137L6.83896 5.2633C6.99824 5.34569 7.13062 5.43827 7.24356 5.54648C7.36471 5.66255 7.43557 5.76992 7.49256 5.85613C7.52794 5.9097 7.55579 5.95192 7.58625 5.9811L7.8732 6.25604L7.87721 6.25807C8.02206 6.33153 8.14431 6.41547 8.2405 6.50763C8.34872 6.61132 8.40419 6.70501 8.44466 6.77347C8.46293 6.80438 8.47833 6.82828 8.49433 6.84755C8.45995 6.82525 8.43256 6.84007 8.41537 6.84946C8.39367 6.86133 8.36918 6.87479 8.28792 6.79693L7.91272 6.43743C7.88038 6.40645 7.8835 6.39997 7.88818 6.39009C7.90435 6.35611 7.90412 6.32514 7.85242 6.27561L7.41021 5.85191C7.35857 5.80243 7.32751 5.80342 7.29431 5.82108C7.28464 5.82618 7.2783 5.82957 7.24591 5.79854L6.88762 5.45525C6.85528 5.42427 6.8584 5.41779 6.86314 5.40796C6.87925 5.37393 6.87903 5.34296 6.82733 5.29343L6.63839 5.11241L6.57384 5.0513L6.46446 5.16546L6.38847 5.09265L6.51804 4.95741L6.62987 5.06456ZM18.9447 18.495C18.9565 18.4303 18.9274 18.3562 18.8472 18.2471C18.7941 18.1752 18.6942 18.0394 18.565 17.8637C18.0046 17.102 16.9614 15.6838 16.6769 15.3282C16.6069 15.2408 16.5425 15.1692 16.4798 15.1091C16.3401 14.9752 16.2379 14.9279 16.1479 14.8861C16.0922 14.8603 16.0439 14.8379 15.991 14.7976C15.9621 14.7755 15.9297 14.7475 15.8953 14.7145C15.7496 14.5749 15.6053 14.3856 15.5918 14.3676C15.5722 14.3373 15.2737 13.8743 15.1751 13.7215C15.1429 13.6717 15.1115 13.632 15.0818 13.6035C15.0259 13.55 14.9871 13.5466 14.969 13.5496L14.9567 13.5515L14.9467 13.5589C14.9466 13.559 14.9457 13.5597 14.9451 13.5601C14.8569 13.444 14.7266 13.2749 14.7266 13.2749L14.6613 13.143C14.8235 12.9612 14.7466 12.6211 14.7002 12.5469C14.7093 12.5429 14.7185 12.5374 14.7279 12.5277C14.7868 12.4662 14.8574 12.0687 14.6492 11.8692L10.5573 7.94865L10.566 7.93955L10.5505 7.85664L10.4796 7.78877L10.4857 7.78245L10.6932 7.98128L10.831 7.83744C10.8674 7.79945 10.8747 7.78913 10.8361 7.75214C10.7771 7.69559 10.6476 7.75057 10.6476 7.75057L10.5325 7.64029C10.5623 7.59282 10.5605 7.53434 10.5243 7.49963C10.4881 7.46498 10.4296 7.46569 10.3835 7.49748L10.362 7.47691C10.3409 7.29121 10.1121 7.18961 10.1121 7.18961L10.026 7.10707L10.0249 7.06341L9.89745 6.94127C9.92611 6.76956 9.76294 6.81239 9.76294 6.81239L9.64961 6.70381L9.61517 6.73975L9.58178 6.70776L9.58151 6.70803C9.58229 6.68069 9.57511 6.65509 9.54859 6.62968C9.43532 6.52115 9.35991 6.5621 9.27849 6.64708L9.24182 6.68536C9.23875 6.6738 9.23273 6.66208 9.22253 6.6523C9.21044 6.64071 9.19584 6.63418 9.18212 6.63284L9.21364 6.59995C9.24691 6.56522 9.25875 6.54487 9.21155 6.49964L9.17217 6.4619C9.17274 6.45831 9.17436 6.45517 9.17444 6.45131C9.1755 6.41445 9.15345 6.37705 9.10048 6.3263C9.03491 6.26348 8.63279 5.89255 8.20705 5.49985C7.79223 5.11719 7.36328 4.72151 7.2956 4.65667C7.25073 4.61367 7.20378 4.59305 7.1558 4.59316L7.10383 4.54335C7.06289 4.50413 6.97316 4.42156 6.87063 4.52856L6.8887 4.5097L5.44736 3.1287C5.42733 3.10951 5.40731 3.09321 5.38733 3.07875C5.38077 3.07405 5.37423 3.07044 5.36772 3.06612C5.35417 3.05739 5.34068 3.04894 5.32716 3.04205C5.31964 3.03814 5.31207 3.03493 5.30456 3.03167C5.29189 3.02613 5.27928 3.02107 5.26664 3.01705C5.25898 3.0145 5.25138 3.01232 5.24368 3.01037C5.23084 3.007 5.21796 3.00445 5.2051 3.00244C5.19801 3.00129 5.19086 3.00009 5.18379 2.99937C5.16946 2.99788 5.15522 2.99732 5.14087 2.99719C5.13533 2.99709 5.12972 2.99672 5.12418 2.99684C5.08323 2.99782 5.04223 3.00354 5.00101 3.01213C4.99987 3.01243 4.99879 3.01267 4.9976 3.01291C4.97737 3.01726 4.95705 3.02215 4.93668 3.02753L4.93452 3.02812C4.86693 3.04602 4.79883 3.06802 4.72976 3.08525C4.72625 3.08614 4.72273 3.08681 4.71922 3.0877C4.68619 3.09575 4.65292 3.10249 4.61944 3.10701C4.61743 3.10732 4.61543 3.10775 4.61348 3.10801C4.60318 3.10931 4.59287 3.10975 4.58256 3.11062C4.52973 3.1149 4.47622 3.11257 4.42189 3.10009L4.40886 3.0876L4.4064 3.08695C4.32136 3.06388 4.24254 3.01667 4.16516 2.94252L4.1579 2.93556L4.15221 2.9415C4.14848 2.93984 4.14406 2.93923 4.13986 2.93818L3.02335 1.86841L3.10642 1.78171L3.36435 0.915538C3.39846 0.919916 3.45141 0.893627 3.49712 0.845922C3.55484 0.785681 3.5787 0.715025 3.55064 0.688132L3.47703 0.617604L3.47392 0.614628L3.35377 0.499509L3.33236 0.478994L3.27705 0.426005C3.24899 0.399112 3.17942 0.425974 3.1217 0.486215C3.077 0.532866 3.05292 0.58565 3.05728 0.619624L3.04957 0.612237L3.04294 0.622159C3.0412 0.624749 2.86865 0.881908 2.67582 1.00932C2.67499 1.00841 2.67421 1.00767 2.6736 1.00708C2.66306 0.996983 2.64387 0.983918 2.64304 0.983338L2.63604 0.978652L2.49983 1.12082C2.48955 1.13088 2.33892 1.19327 2.26841 1.12572L2.25874 1.13581L2.16006 1.04126L2.15179 1.03334C2.10276 0.98636 1.99889 1.01526 1.91975 1.09785C1.84067 1.18039 1.81629 1.28535 1.86532 1.33233L1.87359 1.34025L2.04826 1.50761C2.04826 1.50761 2.14565 1.62805 2.07807 1.82141C2.08467 1.82773 2.14495 1.94315 2.27438 2.01993C2.29057 2.03735 2.30768 2.05503 2.32643 2.07299L4.2045 3.87243C4.19467 3.93387 4.20099 4.01079 4.26544 4.07254L4.33157 4.1359C4.33157 4.1359 4.39966 4.08049 4.44531 4.12423L4.45583 4.11324L6.03286 5.62425C5.94972 5.751 6.04253 5.84024 6.18581 5.97752C6.24256 6.03189 6.32258 6.13271 6.42386 6.26019C6.61422 6.50013 6.90196 6.86275 7.29497 7.2393C7.84884 7.76999 8.16835 8.15507 8.30047 8.45124C8.32591 8.52052 8.37464 8.57327 8.41896 8.61574C8.44115 8.63699 8.46452 8.65768 8.48916 8.67949C8.51497 8.7023 8.54161 8.7258 8.5679 8.75099C8.59098 8.7731 8.61429 8.78342 8.63916 8.78267C8.64958 8.78234 8.65941 8.7793 8.66921 8.7754C8.72202 8.81567 8.76899 8.82439 8.80943 8.81527L8.8205 8.83503L8.82489 8.83955C8.83323 8.8485 9.18243 9.21882 9.59611 9.65775L9.62465 9.88458C9.55776 9.94529 9.25407 10.2037 8.70865 10.4192C8.13678 10.6452 7.17436 10.8689 5.83748 10.6512L5.83013 10.6506C5.79473 10.6515 5.78824 10.6786 5.77078 10.7512C5.76065 10.7935 5.74693 10.8556 5.73017 10.9358C5.70196 11.0701 5.66451 11.2575 5.61874 11.4926C5.54106 11.8924 5.46534 12.2976 5.46461 12.3017L5.45768 12.3382L5.49369 12.348C5.50107 12.3499 6.24155 12.5439 7.28703 12.4869C8.17328 12.4387 9.45246 12.1942 10.6917 11.3422C10.727 11.3706 10.7782 11.4206 10.7793 11.4731L10.7895 11.4829C10.6849 11.5935 10.5894 11.715 10.6261 11.7982L10.6257 11.7979C10.6257 11.7979 10.4842 12.0015 10.4708 12.0944L10.5144 12.1361L10.6019 12.0448C10.6019 12.0448 10.6104 11.9646 10.6802 11.9631L10.701 11.9799L10.7549 11.9237L10.7543 11.9231C10.783 11.9297 10.8187 11.9142 10.8153 11.9899C10.8133 11.991 10.8237 12.0019 10.8385 12.0161C10.8212 12.0963 10.8282 12.2478 11.0182 12.4477C11.0942 12.5276 11.1643 12.6037 11.2323 12.6774C11.3579 12.8135 11.4775 12.9434 11.6058 13.0663C11.6294 13.0889 11.6531 13.1112 11.6775 13.1333C11.8147 13.2585 11.934 13.2752 12.0208 13.2643C12.0219 13.344 11.9976 13.4771 11.8975 13.7269C11.6512 14.3419 11.5117 14.7939 11.3315 15.0738C11.1513 15.3538 11.0514 15.412 11.455 15.7263C11.8584 16.0405 12.2338 15.893 12.3432 15.7624C12.4525 15.6318 12.699 14.8721 12.835 14.577C12.9711 14.2819 13.0522 14.1603 13.2113 14.1046C13.331 14.0626 13.5147 13.9555 13.5677 13.8757L13.5892 13.8988L13.7361 13.8521C13.7863 13.9313 13.8927 14.0982 13.9555 14.1899C13.9721 14.2142 13.9853 14.2351 13.9973 14.2539C13.9207 14.3689 14.0332 14.605 14.2056 14.9668C14.2586 15.0781 14.3189 15.2045 14.3793 15.3395C14.6267 15.8925 16.016 19.3989 16.1521 19.8678C16.1879 19.9911 16.2371 20.0831 16.2983 20.1418C16.4358 20.2735 16.6292 20.2407 16.8439 20.0484C17.1992 19.7151 18.6376 18.7593 18.7826 18.6663C18.8651 18.6132 18.9305 18.5712 18.9447 18.495Z" fill="white"/>
</g>
<defs>
<clipPath id="clip0_10570_129251">
<path d="M0 3.42857C0 1.53502 1.53502 0 3.42857 0H16.5714C18.465 0 20 1.53502 20 3.42857V16.5714C20 18.465 18.465 20 16.5714 20H3.42857C1.53502 20 0 18.465 0 16.5714V3.42857Z" fill="white"/>
</clipPath>
</defs>
</svg>
